HIERARCHY
ROOT Hips
{
	OFFSET 0.000000 97.167313 0.000000
	CHANNELS 6 Xposition Yposition Zposition Xrotation Yrotation Zrotation
	JOINT Spine
	{
		OFFSET 0.000000 13.784798 0.064400
		CHANNELS 3 Xrotation Yrotation Zrotation
		JOINT Spine1
		{
			OFFSET 0.000000 12.037903 0.404700
			CHANNELS 3 Xrotation Yrotation Zrotation
			JOINT Spine2
			{
				OFFSET 0.000000 17.795601 0.420200
				CHANNELS 3 Xrotation Yrotation Zrotation
				JOINT Neck
				{
					OFFSET 0.000000 39.131302 11.954600
					CHANNELS 3 Xrotation Yrotation Zrotation
					JOINT Head
					{
						OFFSET 0.000000 14.456192 15.627699
						CHANNELS 3 Xrotation Yrotation Zrotation
						JOINT HeadTop_End
						{
							OFFSET 0.000000 15.703506 7.603401
							CHANNELS 3 Xrotation Yrotation Zrotation
							End Site
							{
								OFFSET 0.000000 17.447403 0.000000
							}
						}
					}
				}
				JOINT LeftShoulder
				{
					OFFSET 17.399500 24.608795 1.168800
					CHANNELS 3 Xrotation Yrotation Zrotation
					JOINT LeftArm
					{
						OFFSET 18.980635 5.765305 1.818600
						CHANNELS 3 Xrotation Yrotation Zrotation
						JOINT LeftForeArm
						{
							OFFSET 49.290169 0.000000 0.000000
							CHANNELS 3 Xrotation Yrotation Zrotation
							JOINT LeftHand
							{
								OFFSET 31.562012 0.000000 0.000000
								CHANNELS 3 Xrotation Yrotation Zrotation
								JOINT LeftHandThumb1
								{
									OFFSET 6.133995 -4.388519 7.076070
									CHANNELS 3 Xrotation Yrotation Zrotation
									JOINT LeftHandThumb2
									{
										OFFSET 6.037666 -3.485840 3.485847
										CHANNELS 3 Xrotation Yrotation Zrotation
										JOINT LeftHandThumb3
										{
											OFFSET 6.496506 -3.750763 3.750761
											CHANNELS 3 Xrotation Yrotation Zrotation
											JOINT LeftHandThumb4
											{
												OFFSET 5.616882 -3.242905 3.242910
												CHANNELS 3 Xrotation Yrotation Zrotation
												End Site
												{
													OFFSET -1.254608 7.132141 0.375429
												}
											}
										}
									}
								}
								JOINT LeftHandPinky1
								{
									OFFSET 18.920792 -0.453171 -11.426712
									CHANNELS 3 Xrotation Yrotation Zrotation
									JOINT LeftHandPinky2
									{
										OFFSET 4.919586 0.000000 0.000000
										CHANNELS 3 Xrotation Yrotation Zrotation
										JOINT LeftHandPinky3
										{
											OFFSET 5.233047 0.000000 0.000000
											CHANNELS 3 Xrotation Yrotation Zrotation
											JOINT LeftHandPinky4
											{
												OFFSET 5.571716 0.000000 0.000000
												CHANNELS 3 Xrotation Yrotation Zrotation
												End Site
												{
													OFFSET -3.459808 4.342407 -0.466164
												}
											}
										}
									}
								}
								JOINT LeftHandRing1
								{
									OFFSET 22.726120 -0.094986 -6.500475
									CHANNELS 3 Xrotation Yrotation Zrotation
									JOINT LeftHandRing2
									{
										OFFSET 6.408615 0.000000 0.000000
										CHANNELS 3 Xrotation Yrotation Zrotation
										JOINT LeftHandRing3
										{
											OFFSET 6.150223 0.000000 0.000000
											CHANNELS 3 Xrotation Yrotation Zrotation
											JOINT LeftHandRing4
											{
												OFFSET 6.145386 0.000000 0.000000
												CHANNELS 3 Xrotation Yrotation Zrotation
												End Site
												{
													OFFSET -3.671402 4.923981 -0.202372
												}
											}
										}
									}
								}
								JOINT LeftHandMiddle1
								{
									OFFSET 23.373947 0.000000 0.000001
									CHANNELS 3 Xrotation Yrotation Zrotation
									JOINT LeftHandMiddle2
									{
										OFFSET 6.996567 0.000000 0.000000
										CHANNELS 3 Xrotation Yrotation Zrotation
										JOINT LeftHandMiddle3
										{
											OFFSET 7.015945 0.000000 0.000000
											CHANNELS 3 Xrotation Yrotation Zrotation
											JOINT LeftHandMiddle4
											{
												OFFSET 7.721573 0.000000 0.000000
												CHANNELS 3 Xrotation Yrotation Zrotation
												End Site
												{
													OFFSET -4.651108 6.158463 0.251582
												}
											}
										}
									}
								}
								JOINT LeftHandIndex1
								{
									OFFSET 21.310577 -0.490082 6.209344
									CHANNELS 3 Xrotation Yrotation Zrotation
									JOINT LeftHandIndex2
									{
										OFFSET 7.536453 0.000000 0.000000
										CHANNELS 3 Xrotation Yrotation Zrotation
										JOINT LeftHandIndex3
										{
											OFFSET 7.512344 0.000000 0.000000
											CHANNELS 3 Xrotation Yrotation Zrotation
											JOINT LeftHandIndex4
											{
												OFFSET 10.212402 0.000000 0.000001
												CHANNELS 3 Xrotation Yrotation Zrotation
												End Site
												{
													OFFSET -5.180801 8.690506 1.388433
												}
											}
										}
									}
								}
							}
						}
					}
				}
				JOINT RightShoulder
				{
					OFFSET -17.399500 24.608795 1.168800
					CHANNELS 3 Xrotation Yrotation Zrotation
					JOINT RightArm
					{
						OFFSET -18.980635 5.765305 1.818600
						CHANNELS 3 Xrotation Yrotation Zrotation
						JOINT RightForeArm
						{
							OFFSET -49.290169 0.000000 0.000000
							CHANNELS 3 Xrotation Yrotation Zrotation
							JOINT RightHand
							{
								OFFSET -31.562012 0.000000 0.000000
								CHANNELS 3 Xrotation Yrotation Zrotation
								JOINT RightHandThumb1
								{
									OFFSET -6.133995 -4.388519 7.076070
									CHANNELS 3 Xrotation Yrotation Zrotation
									JOINT RightHandThumb2
									{
										OFFSET -6.037666 -3.485840 3.485847
										CHANNELS 3 Xrotation Yrotation Zrotation
										JOINT RightHandThumb3
										{
											OFFSET -6.496506 -3.750763 3.750761
											CHANNELS 3 Xrotation Yrotation Zrotation
											JOINT RightHandThumb4
											{
												OFFSET -5.616882 -3.242905 3.242910
												CHANNELS 3 Xrotation Yrotation Zrotation
												End Site
												{
													OFFSET 1.254608 7.132141 0.375429
												}
											}
										}
									}
								}
								JOINT RightHandIndex1
								{
									OFFSET -21.310577 -0.490082 6.209344
									CHANNELS 3 Xrotation Yrotation Zrotation
									JOINT RightHandIndex2
									{
										OFFSET -7.536453 0.000000 0.000000
										CHANNELS 3 Xrotation Yrotation Zrotation
										JOINT RightHandIndex3
										{
											OFFSET -7.512344 0.000000 0.000000
											CHANNELS 3 Xrotation Yrotation Zrotation
											JOINT RightHandIndex4
											{
												OFFSET -10.212402 0.000000 0.000001
												CHANNELS 3 Xrotation Yrotation Zrotation
												End Site
												{
													OFFSET 5.180801 8.690506 1.388433
												}
											}
										}
									}
								}
								JOINT RightHandMiddle1
								{
									OFFSET -23.373947 0.000000 0.000001
									CHANNELS 3 Xrotation Yrotation Zrotation
									JOINT RightHandMiddle2
									{
										OFFSET -6.996567 0.000000 0.000000
										CHANNELS 3 Xrotation Yrotation Zrotation
										JOINT RightHandMiddle3
										{
											OFFSET -7.015945 0.000000 0.000000
											CHANNELS 3 Xrotation Yrotation Zrotation
											JOINT RightHandMiddle4
											{
												OFFSET -7.721573 0.000000 0.000000
												CHANNELS 3 Xrotation Yrotation Zrotation
												End Site
												{
													OFFSET 4.651108 6.158463 0.251582
												}
											}
										}
									}
								}
								JOINT RightHandRing1
								{
									OFFSET -22.726120 -0.094986 -6.500475
									CHANNELS 3 Xrotation Yrotation Zrotation
									JOINT RightHandRing2
									{
										OFFSET -6.408615 0.000000 0.000000
										CHANNELS 3 Xrotation Yrotation Zrotation
										JOINT RightHandRing3
										{
											OFFSET -6.150223 0.000000 0.000000
											CHANNELS 3 Xrotation Yrotation Zrotation
											JOINT RightHandRing4
											{
												OFFSET -6.145386 0.000000 0.000000
												CHANNELS 3 Xrotation Yrotation Zrotation
												End Site
												{
													OFFSET 3.671402 4.923981 -0.202372
												}
											}
										}
									}
								}
								JOINT RightHandPinky1
								{
									OFFSET -18.920792 -0.453171 -11.426712
									CHANNELS 3 Xrotation Yrotation Zrotation
									JOINT RightHandPinky2
									{
										OFFSET -4.919586 0.000000 0.000000
										CHANNELS 3 Xrotation Yrotation Zrotation
										JOINT RightHandPinky3
										{
											OFFSET -5.233047 0.000000 0.000000
											CHANNELS 3 Xrotation Yrotation Zrotation
											JOINT RightHandPinky4
											{
												OFFSET -5.571716 0.000000 0.000000
												CHANNELS 3 Xrotation Yrotation Zrotation
												End Site
												{
													OFFSET 3.459808 4.342407 -0.466164
												}
											}
										}
									}
								}
							}
						}
					}
				}
			}
		}
	}
	JOINT LeftUpLeg
	{
		OFFSET 19.899099 -7.885101 -3.429500
		CHANNELS 3 Xrotation Yrotation Zrotation
		JOINT LeftLeg
		{
			OFFSET 1.745560 -36.997807 10.304700
			CHANNELS 3 Xrotation Yrotation Zrotation
			JOINT LeftFoot
			{
				OFFSET -1.745558 -29.803308 -13.615400
				CHANNELS 3 Xrotation Yrotation Zrotation
				JOINT LeftToeBase
				{
					OFFSET 1.181900 -18.539904 15.226099
					CHANNELS 3 Xrotation Yrotation Zrotation
					JOINT LeftToe_End
					{
						OFFSET -0.863701 1.402801 16.534700
						CHANNELS 3 Xrotation Yrotation Zrotation
						End Site
						{
							OFFSET 0.000000 16.616566 0.000000
						}
					}
				}
			}
		}
	}
	JOINT RightUpLeg
	{
		OFFSET -19.899099 -7.885101 -3.429500
		CHANNELS 3 Xrotation Yrotation Zrotation
		JOINT RightLeg
		{
			OFFSET -1.745560 -36.997807 10.304700
			CHANNELS 3 Xrotation Yrotation Zrotation
			JOINT RightFoot
			{
				OFFSET 1.745558 -29.803308 -13.615400
				CHANNELS 3 Xrotation Yrotation Zrotation
				JOINT RightToeBase
				{
					OFFSET -1.181900 -18.539904 15.226099
					CHANNELS 3 Xrotation Yrotation Zrotation
					JOINT RightToe_End
					{
						OFFSET 0.863701 1.402801 16.534700
						CHANNELS 3 Xrotation Yrotation Zrotation
						End Site
						{
							OFFSET 0.000000 16.616566 0.000000
						}
					}
				}
			}
		}
	}
}
MOTION
Frames: 6
Frame Time: 0.033333
0.377039 76.855011 5.013161 -0.252490 -0.007814 -1.142114 16.586488 0.279514 0.428405 20.119555 0.469852 0.900696 12.592127 0.364575 0.927905 2.981582 -0.915419 0.127353 -21.725490 3.041513 -1.451455 0.000001 0.000000 -0.000000 20.445937 -17.628647 8.705107 -33.570199 -17.336509 -36.862247 -2.640520 -52.136169 -20.395476 -54.784121 -19.506908 -15.020213 36.774555 8.584242 -16.863119 2.295269 23.044211 15.130530 0.424270 18.444301 14.529735 0.000003 0.000001 -0.000002 0.639426 9.451086 -24.540602 0.384720 2.021071 -21.956394 0.384730 2.021076 -21.956379 -0.000003 0.000001 -0.000000 0.645050 9.457035 -24.540784 0.393056 2.026042 -21.955961 0.393056 2.026034 -21.955947 0.000001 -0.000001 0.000003 0.652332 9.453930 -24.543704 0.393115 2.026188 -21.957658 0.393119 2.026191 -21.957655 0.000002 -0.000001 0.000004 0.660271 9.450358 -24.545009 0.393116 2.026190 -21.957655 0.524041 0.707671 -27.284593 -0.000001 0.000005 0.000002 18.311834 13.497351 -7.979216 -29.297198 10.275806 43.682547 -39.182435 60.008806 40.506150 -15.081129 -0.977425 14.319029 40.076162 0.945911 20.753842 5.156833 -21.099689 -19.108096 4.784344 -12.461130 -21.495575 0.000001 0.000000 0.000001 18.327826 0.099138 38.977970 -3.924271 9.265825 32.256248 -5.637826 12.214604 12.777106 -0.000002 -0.000005 -0.000002 -3.500324 -2.454150 34.024106 0.778395 -2.790407 31.036981 0.777748 -2.796326 31.038360 0.000002 0.000001 -0.000006 -12.758003 -10.091628 31.801002 -8.974635 -8.729481 30.664155 -8.952605 -8.746366 30.659770 -0.000001 -0.000001 -0.000000 -16.765418 -2.967952 36.666354 0.750491 -2.749768 30.591420 1.344330 -3.570213 41.053798 -0.000000 -0.000000 0.000002 -34.565794 -0.235956 31.557605 46.464001 -7.627120 -9.153099 -11.978467 -6.312050 -14.354933 -3.786473 -12.891914 -1.582451 -0.000000 0.000000 0.000000 -37.342061 -10.058406 -27.948531 46.854418 11.552239 0.239923 -10.906259 -0.197401 15.016946 -5.744933 9.698440 12.419054 -0.000000 0.000000 0.000000 
0.281594 76.534660 5.167686 -0.548846 -0.080210 -0.848544 17.073613 0.269296 0.391961 20.090761 0.458986 0.901479 12.581434 0.353295 0.926978 3.124562 -1.236447 -0.506272 -21.865420 1.535109 -0.909954 -0.000000 0.000000 -0.000000 20.390104 -17.646390 8.651742 -32.755091 -16.926518 -35.919511 -4.120030 -52.219347 -20.666527 -54.834770 -20.589998 -15.329395 36.688955 8.537865 -16.877244 2.302787 23.091551 15.138554 0.433659 18.491909 14.534392 0.000001 -0.000000 -0.000003 0.679190 9.536623 -24.641654 0.388358 2.030106 -22.059272 0.388344 2.030106 -22.059271 0.000001 0.000002 -0.000002 0.664058 9.497954 -24.629812 0.396233 2.033883 -22.045477 0.396222 2.033882 -22.045475 0.000000 0.000001 0.000003 0.654951 9.459579 -24.609658 0.395443 2.031942 -22.023284 0.395442 2.031942 -22.023296 0.000002 -0.000001 0.000001 0.644924 9.417266 -24.585514 0.394498 2.029647 -21.997003 0.524523 0.711029 -27.323897 0.000001 0.000005 0.000002 18.254166 13.728079 -7.894946 -30.138811 3.815285 45.614790 -35.137153 63.746688 38.103160 -14.933384 0.442596 15.744052 40.008769 0.918308 20.664531 5.381174 -21.706917 -18.836598 4.932257 -12.975113 -20.761161 0.000001 0.000000 -0.000003 18.080035 0.346176 40.562738 -4.181657 8.956832 33.957843 -5.670846 12.141670 13.003374 0.000000 -0.000005 -0.000000 -3.499464 -2.452518 34.013861 0.778393 -2.790405 31.036981 0.778010 -2.796765 31.043855 0.000002 0.000001 -0.000004 -12.748365 -10.085744 31.802665 -8.974639 -8.729484 30.664158 -8.955209 -8.742045 30.608379 0.000000 0.000001 0.000000 -16.836999 -3.344019 37.690165 0.774126 -2.789436 31.080527 1.336682 -3.561498 40.930916 0.000001 -0.000000 0.000002 -34.236648 -0.080703 31.757497 46.852871 -7.733328 -9.362140 -12.306403 -6.183375 -14.456391 -4.050769 -12.930007 -1.629338 -0.000000 0.000001 0.000000 -37.626423 -9.944478 -28.242327 47.984726 11.890627 -0.096496 -11.535425 -0.334076 14.936755 -6.399223 9.663964 13.151962 -0.000000 -0.000000 -0.000001 
0.170358 76.325279 5.315572 -0.990830 -0.335901 -0.523849 17.680182 0.101845 0.252897 19.814433 0.412168 0.890890 12.443394 0.307503 0.911465 2.804484 -2.381622 -2.035336 -21.286404 -3.443392 0.433149 -0.000001 -0.000000 0.000000 19.889436 -17.503714 8.029983 -31.786307 -16.214186 -35.753940 -2.163143 -51.948370 -19.251450 -54.110244 -22.572585 -15.133090 36.444844 8.405288 -16.918624 2.324193 23.226823 15.161558 0.459034 18.627594 14.552358 0.000001 -0.000002 0.000002 0.782464 9.785643 -24.928838 0.398834 2.055860 -22.353119 0.398839 2.055861 -22.353123 -0.000001 0.000002 -0.000002 0.719002 9.614490 -24.884295 0.405345 2.056258 -22.301170 0.405355 2.056259 -22.301174 0.000000 -0.000002 0.000005 0.662459 9.475670 -24.798112 0.402120 2.048347 -22.210737 0.402106 2.048353 -22.210732 -0.000002 -0.000005 0.000001 0.600820 9.322882 -24.701232 0.398504 2.039478 -22.109399 0.529647 0.720425 -27.436223 -0.000001 0.000001 0.000001 17.892876 13.779829 -7.436980 -30.987397 -2.918579 48.616921 -28.642154 67.037631 32.364582 -14.816335 1.887408 16.067878 39.485996 0.713404 19.982524 5.720904 -21.993141 -18.363515 5.948923 -13.688305 -19.680709 0.000000 -0.000001 -0.000001 17.658522 0.242250 40.483242 -4.364024 8.422799 35.822501 -5.754526 11.747998 13.890379 -0.000003 -0.000005 -0.000000 -3.496921 -2.447691 33.983794 0.778396 -2.790411 31.036981 0.779057 -2.798513 31.065432 -0.000000 0.000000 -0.000009 -12.720017 -10.068439 31.807638 -8.974637 -8.729481 30.664162 -8.962855 -8.729441 30.458406 0.000001 -0.000000 -0.000002 -16.549302 -3.948717 38.754732 0.809243 -2.847015 31.794828 1.278834 -3.494286 39.990870 0.000002 -0.000003 0.000004 -33.447614 0.156630 31.959872 47.033789 -7.658847 -9.558810 -12.680093 -5.992536 -14.686220 -4.197130 -13.142256 -1.617703 -0.000000 0.000000 0.000000 -37.840696 -9.943228 -28.380659 48.938118 12.368079 -0.679765 -12.006234 -0.407979 14.851606 -6.696462 9.591846 13.522754 -0.000000 0.000000 0.000000 
0.050663 76.175735 5.495836 -1.490956 -0.919503 -0.331570 18.055429 -0.308719 0.000800 19.284011 0.289712 0.844606 12.173396 0.192466 0.853806 2.702591 -4.431739 -3.877661 -20.654480 -11.690799 2.110917 -0.000000 -0.000000 -0.000000 19.022615 -17.240009 7.120523 -30.417189 -15.629797 -36.786166 0.397189 -51.144959 -17.121160 -52.657979 -24.394956 -15.149588 36.061739 8.196357 -16.986752 2.357795 23.439799 15.197792 0.498935 18.841222 14.580664 0.000002 0.000002 -0.000002 0.950160 10.175650 -25.382554 0.415590 2.096281 -22.815738 0.415600 2.096279 -22.815724 0.000001 0.000001 -0.000004 0.799081 9.800956 -25.284013 0.419928 2.091398 -22.703682 0.419923 2.091393 -22.703704 0.000001 -0.000001 0.000003 0.674385 9.500944 -25.094769 0.412717 2.074133 -22.505828 0.412725 2.074136 -22.505813 0.000001 -0.000002 0.000006 0.539810 9.170419 -24.884920 0.404835 2.054967 -22.286299 0.537361 0.735287 -27.613009 -0.000003 -0.000000 0.000001 17.158400 13.620053 -6.167461 -30.576848 -5.319638 51.636701 -30.320023 68.890654 30.965728 -14.712031 3.610070 15.168682 38.467472 0.356716 18.703805 5.854988 -20.971169 -18.067643 8.232884 -14.814691 -17.938775 -0.000000 -0.000002 -0.000002 17.204587 -1.646954 41.307225 -3.914166 8.309305 34.019834 -5.616212 11.304836 14.088110 0.000000 -0.000003 -0.000002 -3.496327 -2.442245 33.934699 0.778396 -2.790407 31.036981 0.780797 -2.801353 31.100556 0.000002 0.000000 -0.000002 -12.673915 -10.040278 31.815711 -8.974641 -8.729483 30.664155 -8.971313 -8.706862 30.216873 -0.000001 -0.000002 -0.000002 -15.733850 -3.736415 37.286402 0.823917 -2.870549 32.088680 1.172933 -3.365183 38.220916 -0.000000 -0.000000 0.000006 -32.272736 0.349026 32.366159 47.230096 -7.445284 -9.804818 -13.289999 -5.667021 -15.046219 -4.687015 -13.053998 -1.702044 0.000001 0.000000 0.000000 -38.054822 -10.003432 -28.153765 49.704113 12.858758 -1.445666 -12.248546 -0.395740 14.753065 -6.875931 9.576823 13.731744 -0.000001 -0.000000 0.000000 
-0.014900 76.161064 5.691349 -1.939217 -2.012709 -0.439690 18.229338 -1.011914 -0.154588 18.536923 0.077717 0.796168 11.792392 -0.009190 0.788255 3.042863 -6.767164 -5.499650 -20.339385 -20.823515 3.910904 -0.000003 0.000003 -0.000000 17.824287 -16.857573 5.856306 -28.060007 -16.191460 -38.952084 1.740370 -50.896070 -14.547792 -50.734276 -26.957940 -15.493739 35.559498 7.920876 -17.082040 2.401810 23.720200 15.245489 0.551261 19.122520 14.617875 0.000001 0.000001 0.000003 1.180465 10.685320 -25.983127 0.438159 2.149303 -23.424899 0.438153 2.149311 -23.424899 0.000003 0.000002 -0.000002 0.908271 10.044937 -25.811314 0.439471 2.137513 -23.233734 0.439473 2.137509 -23.233734 -0.000001 -0.000001 0.000003 0.690277 9.534146 -25.485440 0.426903 2.108001 -22.894383 0.426900 2.108003 -22.894369 0.000001 0.000000 0.000008 0.457953 8.970318 -25.126709 0.413220 2.075309 -22.519275 0.547250 0.754619 -27.845822 -0.000001 0.000003 0.000001 16.207487 13.504776 -5.015659 -27.842515 -2.407401 53.925102 -46.378822 74.506504 43.747249 -14.459750 2.704726 14.140005 36.964837 -0.077630 16.922238 6.737563 -21.692780 -16.833785 10.606700 -15.465199 -16.279180 0.000001 -0.000001 -0.000001 16.418586 -3.059090 41.909020 -3.621947 7.769362 33.741647 -5.497296 10.589734 14.868181 -0.000005 -0.000001 0.000003 -3.499383 -2.437708 33.867473 0.778396 -2.790408 31.036981 0.783115 -2.805227 31.148494 -0.000001 0.000000 -0.000001 -12.610950 -10.001804 31.826639 -8.974641 -8.729481 30.664158 -8.978451 -8.673893 29.890346 -0.000001 -0.000002 -0.000003 -14.623751 -3.768017 35.853876 0.834756 -2.887817 32.304592 1.031109 -3.178495 35.736117 -0.000000 -0.000003 0.000007 -30.731801 0.592434 33.195693 47.408968 -7.056419 -10.182605 -14.172167 -5.223062 -15.485338 -5.013405 -12.973555 -1.905653 -0.000000 0.000000 0.000000 -38.218464 -10.114507 -27.257291 49.922843 13.324196 -2.466131 -12.008991 -0.336947 14.773959 -6.909496 9.704895 13.783776 0.000000 0.000000 -0.000001 
0.036558 76.188934 5.868520 -2.436399 -3.386616 -0.814976 18.404047 -1.944989 -0.009571 17.544674 -0.229451 0.668005 11.255312 -0.290772 0.637373 3.470875 -8.934585 -6.594742 -19.171079 -29.070675 5.760963 0.000002 0.000000 0.000001 16.387417 -16.340000 4.394560 -25.243855 -18.330945 -41.937624 2.310602 -51.675978 -11.829529 -47.987516 -29.387903 -14.872494 34.958001 7.588746 -17.205156 2.454453 24.057825 15.302981 0.614018 19.461268 14.662659 -0.000001 -0.000001 -0.000003 1.472095 11.292936 -26.711161 0.466084 2.212827 -24.158379 0.466070 2.212834 -24.158400 0.000006 0.000004 -0.000004 1.045367 10.336328 -26.447713 0.463583 2.192786 -23.871972 0.463591 2.192787 -23.871959 -0.000004 0.000002 0.000000 0.709727 9.573969 -25.955907 0.444283 2.148647 -23.362254 0.444269 2.148665 -23.362232 0.000002 -0.000004 0.000001 0.357093 8.730310 -25.417791 0.423437 2.099767 -22.799769 0.559432 0.777526 -28.126144 0.000000 0.000005 0.000002 15.121310 13.493986 -4.386087 -25.498411 3.126349 55.667404 -73.861058 82.060017 70.145005 -13.815550 0.667649 16.894430 34.987641 -0.504501 14.737284 7.180314 -20.629815 -16.082275 13.508741 -15.110235 -16.075955 -0.000000 -0.000001 0.000002 15.240683 -3.751944 42.973614 -3.530802 6.758470 35.592092 -5.358958 9.659890 16.103107 -0.000001 0.000000 -0.000003 -3.502939 -2.432367 33.783215 0.778390 -2.790407 31.036981 0.786059 -2.810069 31.208582 -0.000001 0.000001 -0.000004 -12.532092 -9.953580 31.840324 -8.974636 -8.729480 30.664162 -8.987434 -8.633213 29.484690 -0.000001 0.000001 -0.000007 -13.347203 -4.399686 35.573548 0.859221 -2.926249 32.787254 0.866500 -2.938411 32.651689 0.000001 -0.000000 0.000002 -29.005600 0.838315 34.247853 47.768980 -6.596239 -10.593155 -15.300155 -4.719061 -15.926500 -5.221394 -12.875823 -2.111693 -0.000000 0.000000 0.000000 -38.346977 -10.411227 -26.042961 49.785601 13.846653 -3.587577 -11.389463 -0.193542 14.853419 -6.952382 9.763886 13.865385 -0.000000 -0.000000 -0.000001 
